<svg width="150" height="41" viewBox="0 0 150 41" fill="none" xmlns="http://www.w3.org/2000/svg">
<g clip-path="url(#clip0_79_338)">
<path d="M12.98 17.395C12.98 18.545 12.51 19.65 11.67 20.465C10.83 21.28 9.695 21.735 8.51 21.735C7.325 21.735 6.185 21.275 5.35 20.465C4.51 19.65 4.04 18.545 4.04 17.395H0V22.255C0.52 22.26 1.035 22.365 1.515 22.565C2.01 22.77 2.46 23.07 2.84 23.45C3.22 23.83 3.52 24.28 3.725 24.775C3.91 25.215 4.005 25.685 4.03 26.165H12.99C13.01 25.69 13.11 25.22 13.295 24.775C13.5 24.28 13.8 23.83 14.18 23.45C14.56 23.07 15.01 22.77 15.505 22.565C15.985 22.365 16.5 22.265 17.02 22.255V17.395H12.98Z" fill="#5C6D83"/>
<path d="M2.84 14.325C3.22 14.73 3.52 15.205 3.725 15.735C3.93 16.26 4.035 16.825 4.035 17.395H12.98C12.98 16.825 13.085 16.26 13.29 15.735C13.495 15.21 13.795 14.73 14.175 14.325C14.555 13.92 15.005 13.6 15.5 13.385C15.98 13.175 16.495 13.065 17.015 13.055V8.63H12.97C12.92 9.65 12.465 10.62 11.67 11.345C10.83 12.11 9.695 12.545 8.51 12.545C7.325 12.545 6.185 12.115 5.35 11.345C4.555 10.62 4.1 9.65 4.05 8.63H0V13.055C0.52 13.06 1.035 13.17 1.515 13.385C2.01 13.605 2.46 13.925 2.84 14.325Z" fill="#5C6D83"/>
<path d="M24.89 11.875C24.33 11.875 23.86 11.69 23.48 11.32C23.1 10.95 22.91 10.49 22.91 9.935C22.91 9.38 23.1 8.935 23.48 8.56C23.86 8.185 24.325 8 24.875 8C25.425 8 25.875 8.185 26.25 8.56C26.625 8.935 26.81 9.395 26.81 9.935C26.81 10.475 26.625 10.945 26.26 11.32C25.895 11.69 25.435 11.875 24.885 11.875H24.89ZM22.925 13.22H26.8V26.14H22.925V13.22Z" fill="#5C6D83"/>
<path d="M41.73 17.885V26.14H37.855V18.97C37.855 18.565 37.755 18.195 37.56 17.865C37.36 17.535 37.1 17.27 36.77 17.075C36.44 16.88 36.075 16.785 35.67 16.785C35.265 16.785 34.895 16.88 34.565 17.075C34.235 17.27 33.97 17.53 33.775 17.865C33.58 18.195 33.485 18.565 33.485 18.97V26.14H29.61L29.595 13.22H33.47L33.485 14.035C33.915 13.665 34.405 13.375 34.96 13.17C35.51 12.965 36.095 12.86 36.705 12.86C37.635 12.86 38.48 13.085 39.24 13.54C40 13.995 40.605 14.6 41.055 15.355C41.505 16.115 41.735 16.955 41.735 17.89L41.73 17.885Z" fill="#5C6D83"/>
<path d="M47.725 26.375C47.07 26.315 46.44 26.175 45.84 25.95C45.235 25.725 44.7 25.42 44.225 25.03C43.75 24.645 43.375 24.17 43.1 23.61L46.355 22.215C46.44 22.31 46.56 22.43 46.715 22.57C46.87 22.71 47.065 22.84 47.305 22.95C47.54 23.06 47.83 23.12 48.165 23.12C48.39 23.12 48.605 23.095 48.815 23.05C49.025 23.005 49.2 22.92 49.33 22.8C49.46 22.68 49.53 22.51 49.53 22.295C49.53 22.055 49.44 21.87 49.265 21.745C49.09 21.62 48.875 21.53 48.625 21.475C48.375 21.42 48.145 21.375 47.925 21.34C47.16 21.22 46.425 20.975 45.72 20.61C45.02 20.245 44.445 19.765 43.995 19.175C43.545 18.585 43.325 17.895 43.325 17.1C43.325 16.215 43.555 15.445 44.01 14.8C44.465 14.155 45.065 13.655 45.8 13.305C46.535 12.955 47.33 12.78 48.185 12.78C49.195 12.78 50.125 12.985 50.985 13.4C51.84 13.815 52.545 14.41 53.1 15.185L50.05 16.995C49.945 16.865 49.82 16.735 49.67 16.6C49.52 16.465 49.345 16.35 49.155 16.25C48.96 16.15 48.75 16.09 48.53 16.065C48.23 16.04 47.96 16.05 47.72 16.095C47.485 16.14 47.295 16.235 47.16 16.38C47.02 16.52 46.955 16.725 46.955 16.995C46.955 17.245 47.075 17.425 47.315 17.54C47.555 17.65 47.825 17.735 48.13 17.785C48.43 17.835 48.675 17.895 48.865 17.955C49.605 18.195 50.305 18.51 50.96 18.9C51.615 19.29 52.14 19.755 52.545 20.31C52.945 20.86 53.135 21.505 53.105 22.25C53.105 23.11 52.845 23.87 52.33 24.525C51.815 25.18 51.145 25.675 50.325 26.01C49.505 26.345 48.64 26.47 47.73 26.385L47.725 26.375Z" fill="#5C6D83"/>
<path d="M58.86 32.605H54.985V13.22H58.86V14.435C59.265 13.98 59.735 13.605 60.27 13.315C60.805 13.025 61.42 12.88 62.12 12.88C63.065 12.88 63.95 13.055 64.77 13.41C65.59 13.765 66.31 14.25 66.935 14.875C67.56 15.5 68.045 16.22 68.395 17.04C68.745 17.86 68.92 18.735 68.92 19.675C68.92 20.615 68.745 21.495 68.395 22.325C68.045 23.155 67.56 23.88 66.935 24.5C66.31 25.125 65.59 25.615 64.77 25.965C63.95 26.32 63.07 26.495 62.12 26.495C61.42 26.495 60.805 26.35 60.27 26.055C59.735 25.76 59.265 25.39 58.86 24.945V32.605ZM62.065 16.61C61.54 16.61 61.06 16.75 60.625 17.03C60.19 17.31 59.845 17.685 59.585 18.15C59.325 18.615 59.195 19.13 59.195 19.69C59.195 20.25 59.325 20.775 59.585 21.24C59.845 21.705 60.19 22.075 60.625 22.35C61.06 22.625 61.54 22.765 62.065 22.765C62.59 22.765 63.085 22.63 63.525 22.35C63.965 22.075 64.315 21.705 64.57 21.24C64.83 20.775 64.96 20.26 64.96 19.69C64.96 19.12 64.83 18.615 64.57 18.15C64.31 17.685 63.965 17.31 63.525 17.03C63.085 16.75 62.6 16.61 62.065 16.61Z" fill="#5C6D83"/>
<path d="M76.615 26.48C75.425 26.48 74.345 26.175 73.365 25.565C72.385 24.955 71.605 24.13 71.025 23.095C70.445 22.06 70.155 20.92 70.155 19.67C70.155 18.73 70.325 17.85 70.66 17.025C70.995 16.205 71.46 15.48 72.05 14.855C72.64 14.23 73.325 13.74 74.11 13.39C74.895 13.035 75.73 12.86 76.615 12.86C77.65 12.86 78.595 13.085 79.45 13.54C80.305 13.99 81.03 14.605 81.62 15.375C82.21 16.145 82.63 17.015 82.88 17.98C83.13 18.945 83.155 19.94 82.955 20.965H74.335C74.455 21.265 74.615 21.54 74.82 21.785C75.02 22.03 75.27 22.225 75.57 22.375C75.865 22.52 76.215 22.6 76.61 22.61C76.99 22.62 77.34 22.535 77.665 22.365C77.99 22.195 78.27 21.96 78.51 21.665L82.465 22.58C81.94 23.725 81.155 24.665 80.115 25.39C79.075 26.12 77.905 26.48 76.615 26.48ZM74.2 18.12H79.045C78.925 17.75 78.745 17.42 78.5 17.14C78.255 16.86 77.975 16.63 77.655 16.47C77.33 16.305 76.985 16.225 76.615 16.225C76.245 16.225 75.91 16.305 75.59 16.47C75.265 16.635 74.985 16.86 74.75 17.14C74.515 17.42 74.33 17.75 74.2 18.12Z" fill="#5C6D83"/>
<path d="M92.46 21.905L95.95 23.79C95.355 24.6 94.61 25.25 93.715 25.74C92.82 26.23 91.84 26.475 90.78 26.475C89.59 26.475 88.51 26.17 87.53 25.56C86.55 24.95 85.77 24.13 85.19 23.1C84.61 22.07 84.32 20.93 84.32 19.68C84.32 18.735 84.49 17.845 84.825 17.025C85.16 16.205 85.625 15.48 86.215 14.855C86.805 14.23 87.49 13.74 88.275 13.39C89.06 13.035 89.895 12.86 90.78 12.86C91.84 12.86 92.815 13.105 93.715 13.595C94.615 14.085 95.355 14.745 95.95 15.57L92.46 17.455C92.23 17.225 91.965 17.045 91.68 16.92C91.39 16.795 91.09 16.735 90.78 16.735C90.29 16.735 89.85 16.875 89.46 17.15C89.07 17.425 88.765 17.79 88.535 18.235C88.305 18.685 88.195 19.165 88.195 19.68C88.195 20.195 88.31 20.665 88.535 21.11C88.765 21.555 89.07 21.915 89.46 22.19C89.85 22.465 90.285 22.605 90.78 22.605C91.09 22.605 91.39 22.545 91.68 22.415C91.97 22.29 92.23 22.12 92.46 21.905Z" fill="#5C6D83"/>
<path d="M105.07 17.095H102.875V26.14H99V17.095H97.32V13.22H99V9.165H102.875V13.22H105.07V17.095Z" fill="#5C6D83"/>
<path d="M119.22 17.885V26.14H115.345V18.97C115.345 18.565 115.245 18.195 115.05 17.865C114.85 17.535 114.59 17.27 114.26 17.075C113.93 16.88 113.565 16.785 113.16 16.785C112.755 16.785 112.385 16.88 112.055 17.075C111.725 17.27 111.46 17.53 111.265 17.865C111.07 18.195 110.975 18.565 110.975 18.97V26.14H107.1L107.085 13.22H110.96L110.975 14.035C111.405 13.665 111.895 13.375 112.45 13.17C113.005 12.965 113.585 12.86 114.195 12.86C115.125 12.86 115.97 13.085 116.73 13.54C117.49 13.995 118.095 14.6 118.545 15.355C118.995 16.115 119.225 16.955 119.225 17.89L119.22 17.885Z" fill="#5C6D83"/>
<path d="M134.755 18.695L134.745 18.525H128.95V21.495H130.695C130.54 21.725 130.375 21.935 130.195 22.115C129.955 22.365 129.69 22.57 129.42 22.73C129.145 22.89 128.86 23.01 128.575 23.09C127.775 23.31 126.955 23.22 126.25 22.9C125.8 22.695 125.395 22.405 125.05 22.035C124.705 21.67 124.43 21.235 124.235 20.74C124.04 20.25 123.94 19.71 123.94 19.15C123.94 18.535 124.045 17.965 124.255 17.46C124.465 16.955 124.745 16.515 125.1 16.15C125.45 15.785 125.855 15.505 126.3 15.305C127.185 14.915 128.155 14.905 129.085 15.32C129.545 15.525 129.975 15.855 130.365 16.295L130.46 16.4L133.465 14.785L133.34 14.62C132.56 13.585 131.675 12.82 130.7 12.355C128.845 11.465 126.86 11.445 125.07 12.19C124.22 12.545 123.445 13.06 122.77 13.72C122.095 14.38 121.555 15.17 121.165 16.075C120.77 16.98 120.57 17.99 120.57 19.09C120.57 20.105 120.75 21.08 121.105 21.98C121.46 22.88 121.96 23.685 122.595 24.375C123.23 25.065 123.99 25.61 124.85 26C125.71 26.39 126.655 26.59 127.665 26.59C128.675 26.59 129.65 26.38 130.525 25.97C131.4 25.56 132.175 24.985 132.825 24.26C133.475 23.535 133.98 22.69 134.32 21.745C134.665 20.8 134.81 19.775 134.755 18.705V18.695Z" fill="#5C6D83"/>
<path d="M149.45 16.21C149.085 15.31 148.57 14.51 147.92 13.825C147.27 13.14 146.51 12.6 145.655 12.21C144.795 11.825 143.865 11.625 142.885 11.625C141.905 11.625 140.985 11.82 140.13 12.21C139.275 12.595 138.51 13.14 137.865 13.825C137.215 14.51 136.7 15.31 136.33 16.205C135.96 17.105 135.775 18.08 135.775 19.1C135.775 20.12 135.96 21.1 136.33 21.995C136.7 22.895 137.215 23.695 137.865 24.375C138.515 25.06 139.28 25.6 140.13 25.99C140.985 26.375 141.915 26.575 142.885 26.575C143.855 26.575 144.795 26.38 145.655 25.99C146.51 25.605 147.27 25.06 147.92 24.375C148.57 23.69 149.085 22.89 149.45 21.99C149.815 21.09 150 20.115 150 19.095C150 18.075 149.815 17.095 149.45 16.2V16.21ZM146.625 19.105C146.625 19.67 146.525 20.205 146.33 20.695C146.135 21.19 145.86 21.625 145.515 22C145.17 22.375 144.77 22.67 144.32 22.885C143.43 23.31 142.34 23.31 141.45 22.885C141 22.67 140.6 22.375 140.255 22C139.91 21.625 139.635 21.185 139.44 20.695C139.245 20.205 139.145 19.665 139.145 19.105C139.145 18.545 139.245 18.005 139.44 17.515C139.635 17.02 139.91 16.58 140.255 16.21C140.6 15.835 141 15.54 141.45 15.325C141.895 15.115 142.38 15.005 142.885 15.005C143.39 15.005 143.875 15.115 144.32 15.325C144.77 15.54 145.17 15.835 145.515 16.21C145.86 16.585 146.135 17.025 146.33 17.515C146.525 18.01 146.625 18.545 146.625 19.105Z" fill="#5C6D83"/>
</g>
<defs>
<clipPath id="clip0_79_338">
<rect width="150" height="24.605" fill="white" transform="translate(0 8)"/>
</clipPath>
</defs>
</svg>
